<svg xmlns="http://www.w3.org/2000/svg" xmlns:xlink="http://www.w3.org/1999/xlink" width="6912" zoomAndPan="magnify" viewBox="0 0 5184 2592.000001" height="3456" preserveAspectRatio="xMidYMid meet" version="1.0"><path fill="#010101" d="M 2374.363281 1406.105469 C 2374.535156 1406.136719 2374.660156 1406.277344 2374.664062 1406.453125 C 2374.730469 1408.429688 2373.519531 1419.109375 2379.648438 1427.03125 C 2380.984375 1428.757812 2381.296875 1429.648438 2378.636719 1430.675781 C 2377.621094 1431.070312 2375.878906 1431.460938 2375.8125 1434.460938 C 2375.738281 1437.632812 2377.417969 1440.175781 2380.394531 1443.046875 C 2381.621094 1444.234375 2382.753906 1448.335938 2383.476562 1451.40625 C 2383.523438 1451.597656 2383.402344 1451.78125 2383.214844 1451.828125 C 2381.96875 1452.144531 2380.730469 1452.460938 2379.507812 1452.78125 C 2370.882812 1455.042969 2358.5625 1460.683594 2355.191406 1465.320312 C 2353.433594 1467.730469 2349.960938 1473.257812 2357.589844 1471.640625 C 2362.679688 1470.566406 2373.433594 1465.816406 2375.859375 1468.878906 C 2375.992188 1469.046875 2375.914062 1469.292969 2375.714844 1469.425781 C 2360.839844 1479.59375 2345.988281 1480.632812 2340.324219 1487.660156 C 2339.113281 1489.144531 2340.488281 1491.179688 2342.675781 1491.996094 C 2351.382812 1495.265625 2363.898438 1494.585938 2367.535156 1494.628906 C 2367.914062 1494.632812 2368.125 1495.066406 2367.863281 1495.292969 C 2360.148438 1502.023438 2352.882812 1506.148438 2344.121094 1510.148438 C 2335.894531 1513.867188 2341.074219 1517.628906 2348.347656 1517.527344 C 2354.789062 1517.402344 2363.53125 1517.570312 2377.324219 1512.242188 C 2377.738281 1512.078125 2377.835938 1512.566406 2377.710938 1512.914062 C 2372.929688 1526.417969 2343.324219 1534.082031 2349.554688 1537.054688 C 2367.832031 1546.128906 2393.46875 1530.722656 2408.90625 1523.253906 C 2409.414062 1523.015625 2409.789062 1523.320312 2409.671875 1523.765625 C 2407.011719 1534.238281 2388.941406 1537.9375 2392.140625 1541.648438 C 2398.636719 1549.582031 2435.328125 1541.246094 2470.679688 1507.328125 C 2491.71875 1487.144531 2524.738281 1469.738281 2527.519531 1468.789062 C 2529.199219 1468.214844 2562.515625 1462.097656 2563.875 1459.492188 C 2564.347656 1458.582031 2559.964844 1450.433594 2559.511719 1448.898438 C 2559.417969 1448.585938 2559.660156 1448.078125 2560.246094 1447.777344 C 2564.386719 1445.65625 2579.917969 1438.078125 2583.832031 1436.46875 C 2584.871094 1436.039062 2585.027344 1436.242188 2585.113281 1436.460938 C 2585.480469 1437.378906 2586.355469 1439.125 2588.0625 1439.421875 C 2592.234375 1440.152344 2598.203125 1433.015625 2598.527344 1432.921875 C 2604.035156 1431.328125 2605.921875 1428.109375 2606.21875 1427.441406 C 2606.253906 1427.359375 2606.3125 1427.292969 2606.394531 1427.253906 C 2608.554688 1426.269531 2637.4375 1414.535156 2642.4375 1412.402344 C 2642.492188 1412.386719 2642.519531 1412.433594 2642.503906 1412.488281 C 2638.273438 1426.011719 2625.875 1444.902344 2615.152344 1454.785156 C 2615.089844 1454.8125 2615.046875 1454.835938 2614.988281 1454.863281 C 2613.917969 1455.011719 2603.566406 1456.492188 2599.851562 1458.644531 C 2590.671875 1463.964844 2592.96875 1475.761719 2590.867188 1480.605469 C 2587.769531 1487.734375 2582.171875 1491.382812 2580.695312 1495.210938 C 2579.617188 1498.003906 2579.914062 1500.824219 2579.8125 1501.746094 C 2579.621094 1503.476562 2578.449219 1504.585938 2578.988281 1506.421875 C 2579.152344 1506.980469 2580.808594 1508.140625 2580.058594 1508.890625 C 2578.914062 1510.027344 2578.535156 1512.152344 2579.09375 1513.710938 C 2579.097656 1513.777344 2579.101562 1513.84375 2579.105469 1513.910156 C 2578.363281 1517.210938 2579.636719 1518.855469 2579.960938 1519.300781 C 2579.980469 1519.363281 2580 1519.421875 2580.015625 1519.484375 C 2580.007812 1522.136719 2582.460938 1522.949219 2582.421875 1523.144531 C 2582.011719 1525.074219 2583.8125 1526.625 2585.25 1526.625 C 2589.0625 1526.625 2593.328125 1525.507812 2596.460938 1521.195312 C 2596.777344 1520.757812 2597.625 1519.65625 2598.332031 1518.71875 C 2598.535156 1518.453125 2598.972656 1518.5625 2599 1518.894531 C 2599.140625 1520.539062 2600.148438 1522.679688 2601.804688 1522.359375 C 2602.152344 1522.289062 2601.09375 1523.96875 2601.175781 1525.238281 C 2601.261719 1526.507812 2602.785156 1531.269531 2606.609375 1528.875 C 2611.9375 1524.742188 2617.105469 1524.0625 2623.636719 1517.765625 C 2628.339844 1513.238281 2636.378906 1505.59375 2642.507812 1501.554688 C 2658.398438 1491.09375 2668.25 1485.003906 2680.089844 1477.179688 C 2696.808594 1466.128906 2715.621094 1451.417969 2742.773438 1427.40625 C 2763.671875 1408.925781 2784.386719 1380.945312 2785.167969 1380.480469 C 2786.445312 1379.722656 2877.125 1361.238281 2926.140625 1356.589844 C 2927.015625 1356.507812 2927.988281 1355.785156 2928.335938 1354.976562 C 2929.667969 1351.859375 2930.511719 1346.792969 2930.746094 1341.875 C 2930.832031 1340.101562 2929.300781 1338.664062 2927.53125 1338.8125 C 2884.367188 1342.386719 2852.074219 1349.132812 2851.691406 1348.789062 C 2850.300781 1347.527344 2844.601562 1343.925781 2837.332031 1344.242188 C 2830.675781 1344.53125 2830.671875 1347.183594 2826.976562 1345.589844 C 2821.167969 1343.085938 2814.238281 1335.246094 2812.367188 1332.132812 C 2810.496094 1329.015625 2804.285156 1326.441406 2800.859375 1321.613281 C 2797.429688 1316.78125 2760.027344 1265.761719 2753.953125 1257.351562 C 2747.875 1248.9375 2736.921875 1196.71875 2722.023438 1180.863281 C 2714.542969 1172.898438 2703.308594 1173.886719 2691.890625 1176.792969 C 2688.914062 1177.550781 2677.015625 1179.171875 2672.789062 1171.550781 C 2672.425781 1170.894531 2669.132812 1166.890625 2673.042969 1162.289062 C 2675.03125 1159.949219 2681.804688 1158.988281 2686.398438 1155.140625 C 2689.429688 1152.601562 2688.605469 1150.148438 2687.316406 1144.074219 C 2686.03125 1137.996094 2688.785156 1132.421875 2688.085938 1127.277344 C 2687.558594 1123.414062 2684.519531 1120.089844 2682.929688 1118.726562 C 2682.519531 1118.378906 2682.390625 1117.871094 2683.023438 1117.601562 C 2684.40625 1117.011719 2687.359375 1115.765625 2688.390625 1115.195312 C 2713.554688 1101.207031 2723.828125 1084.664062 2708.042969 1083.15625 C 2698.730469 1082.269531 2685.410156 1082.101562 2670.835938 1087.121094 C 2670.640625 1087.1875 2669.71875 1086.347656 2669.375 1085.820312 C 2661.800781 1074.128906 2648.171875 1066.046875 2632.429688 1064.464844 C 2631.613281 1064.382812 2611.5625 1041.871094 2580.023438 1052.007812 C 2571.128906 1054.867188 2558.824219 1067.414062 2553.039062 1077.203125 C 2551.804688 1079.296875 2554.207031 1081.632812 2556.25 1080.316406 C 2572.652344 1069.75 2584.753906 1068.027344 2585.167969 1069.5625 C 2589.191406 1084.425781 2600.296875 1086.484375 2600.351562 1087.71875 C 2601.480469 1112.527344 2608.695312 1110.667969 2605.539062 1112.945312 C 2595.535156 1120.160156 2598.183594 1124.234375 2596.554688 1124.265625 C 2585.484375 1124.464844 2579.492188 1128.710938 2576.148438 1135.691406 C 2573.816406 1140.421875 2574.925781 1146.144531 2576.738281 1150.015625 C 2577.589844 1151.84375 2575.890625 1152.625 2561.253906 1153.335938 C 2553.695312 1153.699219 2547.867188 1155.824219 2541.726562 1164.398438 C 2535.980469 1172.414062 2540.160156 1180.742188 2548.753906 1176.527344 C 2554.4375 1173.738281 2560.855469 1178.792969 2547.621094 1181.703125 C 2524.671875 1186.75 2529.953125 1200.714844 2533.734375 1207.398438 C 2535.953125 1211.316406 2524.355469 1209.402344 2523.09375 1231.734375 C 2522.660156 1239.402344 2509.074219 1243.273438 2507.386719 1229.789062 C 2506.015625 1218.835938 2514.058594 1223.882812 2517.125 1226.164062 C 2517.4375 1226.394531 2517.847656 1226.054688 2517.683594 1225.703125 C 2515.484375 1220.980469 2507.257812 1206.21875 2494.414062 1216.960938 C 2489.699219 1220.902344 2490.253906 1228.011719 2491.328125 1230.332031 C 2491.453125 1230.601562 2491.222656 1230.886719 2490.929688 1230.839844 C 2487.351562 1230.265625 2477.160156 1230.171875 2472.371094 1232.355469 C 2467.320312 1234.664062 2469.195312 1238.523438 2470.273438 1240.121094 C 2470.449219 1240.382812 2470.242188 1240.714844 2469.929688 1240.691406 C 2468.800781 1240.601562 2466.390625 1239.507812 2460.507812 1240.191406 C 2449.953125 1241.414062 2443.691406 1237.136719 2439.554688 1228.625 C 2437.636719 1224.683594 2438.441406 1220.023438 2443.039062 1220.109375 C 2446.207031 1220.167969 2449.957031 1222.550781 2451.714844 1223.800781 C 2452.023438 1224.019531 2452.417969 1223.699219 2452.273438 1223.351562 C 2451.007812 1220.324219 2446.894531 1212.789062 2438.027344 1215.027344 C 2428.640625 1217.398438 2429.734375 1236.34375 2444.910156 1245.617188 C 2454.890625 1251.714844 2461.960938 1251.585938 2467.832031 1250.832031 C 2473.152344 1250.144531 2471.105469 1258.382812 2470.488281 1260.285156 C 2470.410156 1260.519531 2470.136719 1260.617188 2469.929688 1260.476562 C 2468.183594 1259.296875 2460.882812 1254.574219 2452.160156 1251.863281 C 2445.109375 1249.671875 2444.257812 1255.894531 2444.359375 1258.867188 C 2444.371094 1259.207031 2443.964844 1259.378906 2443.730469 1259.132812 C 2442.667969 1258.050781 2440.382812 1256.339844 2436.144531 1255.140625 C 2422.882812 1251.378906 2428.742188 1277.664062 2421.542969 1281.265625 C 2411.703125 1286.183594 2409.652344 1311.34375 2424.4375 1317.980469 C 2440.078125 1325 2444.066406 1313.191406 2444.691406 1308.414062 C 2444.742188 1308.027344 2444.234375 1307.839844 2444.015625 1308.167969 C 2441.679688 1311.65625 2434.984375 1319.695312 2428.523438 1310.191406 C 2421.082031 1299.246094 2435.945312 1294.8125 2442.226562 1295.238281 C 2450.539062 1295.796875 2452.65625 1299.972656 2460.324219 1306.25 C 2467.992188 1312.527344 2474.148438 1304.457031 2478.34375 1300.003906 C 2482.539062 1295.550781 2485.804688 1310.347656 2489.886719 1313.15625 C 2498.632812 1319.171875 2508.269531 1315.476562 2518.222656 1310.191406 C 2528.171875 1304.90625 2537.421875 1288.871094 2541.46875 1296.714844 C 2545.511719 1304.554688 2545.367188 1310.449219 2556.621094 1311.257812 C 2563.398438 1311.742188 2570.117188 1309.292969 2573.382812 1303.042969 C 2578.886719 1292.496094 2572.195312 1290.609375 2584.902344 1290.953125 C 2594.253906 1291.203125 2594.101562 1282.128906 2595.488281 1278.757812 C 2595.628906 1278.410156 2596.152344 1278.484375 2596.199219 1278.859375 C 2597.105469 1286.042969 2597.945312 1304.164062 2595.78125 1311.277344 C 2590.433594 1328.871094 2584.585938 1369.167969 2585.691406 1385.234375 C 2586.109375 1391.296875 2581.628906 1395.546875 2580.433594 1400.65625 C 2579.8125 1403.304688 2579.449219 1410.769531 2578.0625 1411.839844 C 2572.832031 1415.878906 2572.253906 1424.121094 2571.828125 1424.238281 C 2567.273438 1425.503906 2556.472656 1431.289062 2556.125 1430.769531 C 2555.554688 1429.921875 2552.4375 1415.023438 2547.433594 1414.140625 C 2545.257812 1413.753906 2528.71875 1424.785156 2519.539062 1429.03125 C 2519.160156 1429.207031 2517.441406 1429.679688 2516.289062 1429.660156 C 2511.289062 1429.589844 2504.125 1430.066406 2496.617188 1431.328125 C 2496.488281 1431.351562 2496.367188 1431.304688 2496.285156 1431.199219 C 2494.402344 1428.75 2488.242188 1425.011719 2476.652344 1424.128906 C 2474.574219 1423.96875 2473.84375 1418.730469 2474.113281 1416.378906 C 2474.566406 1412.371094 2475.472656 1410.535156 2476.835938 1408.761719 C 2485.605469 1397.371094 2478.058594 1383.710938 2480.65625 1382.402344 C 2483.335938 1381.066406 2484.914062 1379.855469 2486.390625 1378.203125 C 2487.960938 1376.441406 2488.730469 1374.722656 2489.199219 1372.917969 C 2490.054688 1369.628906 2489.53125 1366.980469 2488.144531 1364.625 C 2487.007812 1362.699219 2486.769531 1361.621094 2488.15625 1359.617188 C 2493.34375 1352.125 2488.761719 1344.429688 2486.945312 1342.023438 C 2486.792969 1341.820312 2486.492188 1341.84375 2486.355469 1342.054688 C 2483.484375 1346.445312 2481.007812 1349.566406 2479.578125 1350.699219 C 2479.476562 1350.78125 2479.34375 1350.792969 2479.21875 1350.75 C 2474.210938 1348.941406 2469.742188 1349.074219 2463.738281 1352.445312 C 2463.65625 1352.464844 2463.582031 1352.480469 2463.5 1352.5 C 2462.152344 1352.328125 2459.65625 1349.515625 2453.839844 1345.054688 C 2453.492188 1344.789062 2452.992188 1345.03125 2452.875 1345.464844 C 2452.179688 1348 2450.511719 1355.660156 2454.039062 1360.542969 C 2455.515625 1362.59375 2456.671875 1363.515625 2456.199219 1365.214844 C 2455.230469 1368.699219 2456.203125 1371.519531 2456.347656 1372.28125 C 2456.363281 1372.363281 2456.316406 1372.410156 2456.234375 1372.328125 C 2454.570312 1370.703125 2436.902344 1353.644531 2417.78125 1354.953125 C 2412.910156 1355.296875 2409.363281 1356.074219 2403.230469 1359.15625 C 2385.164062 1368.230469 2379.179688 1383.382812 2375.769531 1394.777344 C 2375.71875 1394.949219 2375.554688 1395.058594 2375.378906 1395.035156 C 2367.902344 1394.074219 2358.488281 1390.765625 2351.253906 1385.058594 C 2340.183594 1376.324219 2337.769531 1361.410156 2341.328125 1351.746094 C 2345.714844 1339.835938 2356.417969 1336.253906 2362.902344 1336.691406 C 2368.699219 1337.078125 2371.867188 1338.90625 2374.679688 1341.367188 C 2378.917969 1345.074219 2378.347656 1363.640625 2365.316406 1359.867188 C 2359.933594 1358.304688 2360.855469 1354.675781 2357.757812 1354.796875 C 2354.410156 1354.929688 2353.0625 1361.992188 2361.097656 1365.65625 C 2374.636719 1371.828125 2383.457031 1361.4375 2384.40625 1351.929688 C 2385.472656 1341.269531 2381.625 1328.53125 2360.679688 1328.363281 C 2352.390625 1328.300781 2339.714844 1333.261719 2333.921875 1346.265625 C 2330.65625 1353.609375 2327.914062 1367.511719 2335.425781 1381.179688 C 2342.039062 1393.203125 2356.0625 1403.074219 2374.363281 1406.105469 Z M 2623.796875 1479.667969 C 2623.195312 1481.265625 2622.707031 1482.773438 2622.296875 1484.0625 C 2620.117188 1490.902344 2614.347656 1495.820312 2609.742188 1497.496094 C 2609.410156 1497.617188 2609.101562 1497.261719 2609.277344 1496.957031 C 2614.210938 1488.386719 2618.289062 1486.355469 2623.585938 1479.328125 C 2623.832031 1479 2623.96875 1479.222656 2623.796875 1479.667969 Z M 2718.585938 1274.679688 C 2722.949219 1264.691406 2720.738281 1251.714844 2720.378906 1249.289062 C 2719.414062 1242.746094 2726.390625 1263.089844 2728.28125 1271.289062 C 2730.386719 1280.402344 2735.574219 1288.234375 2755.207031 1304.902344 C 2772.890625 1319.914062 2793.316406 1333.246094 2797.59375 1340.730469 C 2800.710938 1346.183594 2799.542969 1347.546875 2801.367188 1350.738281 C 2802.441406 1352.621094 2803.648438 1353.6875 2804.734375 1354.285156 C 2806.625 1355.324219 2806.164062 1355.128906 2804.773438 1355.359375 C 2798.625 1356.375 2791.429688 1358.441406 2791.429688 1358.441406 C 2790.542969 1358.671875 2792.261719 1355.179688 2791.746094 1350.109375 C 2790.953125 1342.367188 2783.691406 1337.816406 2776.84375 1335.183594 C 2759.515625 1328.519531 2721.699219 1335.191406 2721.238281 1333.832031 C 2718.261719 1325.023438 2711.570312 1313.488281 2709.84375 1311.207031 C 2699.609375 1297.671875 2712.445312 1288.738281 2718.585938 1274.679688 Z M 2651.605469 1452.058594 C 2661.375 1442.015625 2683.03125 1423.425781 2692.179688 1415.328125 C 2692.496094 1415.050781 2692.945312 1415.417969 2692.75 1415.789062 C 2689.148438 1422.792969 2673.371094 1436.976562 2659.664062 1457.191406 C 2657.574219 1460.269531 2654.808594 1465.070312 2651.234375 1468.371094 C 2651.183594 1468.417969 2651.121094 1468.449219 2651.054688 1468.464844 C 2645.585938 1469.777344 2642.746094 1466.730469 2638.886719 1465.863281 C 2638.585938 1465.792969 2638.484375 1465.414062 2638.71875 1465.210938 C 2647.695312 1457.339844 2649.414062 1454.304688 2651.605469 1452.058594 Z M 2625.335938 1254.125 C 2625.289062 1253.695312 2625.890625 1253.535156 2626.054688 1253.9375 C 2627.976562 1258.660156 2630.757812 1267.195312 2632.324219 1271.414062 C 2634.351562 1276.863281 2637.113281 1283.984375 2634.535156 1289.042969 C 2632.300781 1293.429688 2625.65625 1303.375 2625 1304.664062 C 2624.972656 1304.722656 2624.886719 1304.695312 2624.886719 1304.632812 C 2624.886719 1304.632812 2627.726562 1275.78125 2625.335938 1254.125 Z M 2601.160156 1381.535156 C 2602.511719 1376.121094 2611.464844 1351.46875 2615.117188 1341.347656 C 2615.847656 1339.320312 2616.023438 1340.152344 2615.753906 1341.519531 C 2608.617188 1377.257812 2627.257812 1387.335938 2642.089844 1392.503906 C 2642.453125 1392.628906 2642.800781 1393.019531 2642.117188 1393.28125 C 2636.59375 1395.394531 2612.335938 1406.011719 2606.761719 1408.101562 C 2606.097656 1408.355469 2605.832031 1408.035156 2605.914062 1407.714844 C 2606.296875 1406.261719 2605.5625 1403.339844 2603.347656 1396.816406 C 2601.601562 1391.660156 2599.445312 1388.390625 2601.160156 1381.535156 Z M 2439.183594 1266.128906 C 2437.96875 1266.25 2435.921875 1266.710938 2435.46875 1268.464844 C 2434.550781 1272.03125 2437.25 1278.789062 2436.066406 1280.734375 C 2435.054688 1282.382812 2431.625 1283.097656 2429.699219 1283.359375 C 2429.324219 1283.414062 2429.121094 1282.933594 2429.417969 1282.699219 C 2430.75 1281.648438 2432.890625 1279.769531 2432.929688 1277.332031 C 2432.992188 1273.519531 2431.058594 1269.816406 2431.480469 1266.050781 C 2432.023438 1261.1875 2434.496094 1261.464844 2437.523438 1263.871094 C 2437.929688 1264.191406 2438.785156 1264.9375 2439.398438 1265.480469 C 2439.648438 1265.695312 2439.511719 1266.097656 2439.183594 1266.128906 Z M 2462.1875 1261.433594 C 2461.109375 1261.316406 2459.316406 1261.054688 2456.480469 1260.457031 C 2452.277344 1259.566406 2453 1264.5625 2453.617188 1267.105469 C 2453.710938 1267.488281 2453.238281 1267.742188 2452.976562 1267.449219 C 2451.683594 1265.980469 2449.617188 1263.144531 2449.367188 1259.761719 C 2449.03125 1255.214844 2456.1875 1257.320312 2462.03125 1260.589844 C 2462.570312 1260.890625 2463.230469 1261.542969 2462.1875 1261.433594 Z M 2506.265625 1240.808594 C 2502.84375 1238.878906 2495.5 1233.824219 2496.242188 1226.269531 C 2497.089844 1217.644531 2503.976562 1218.503906 2507.5 1219.53125 C 2507.878906 1219.640625 2507.851562 1220.199219 2507.460938 1220.257812 C 2505.257812 1220.582031 2502.019531 1222.140625 2501.359375 1228.382812 C 2500.925781 1232.46875 2504.71875 1237.753906 2506.742188 1240.253906 C 2507.003906 1240.574219 2506.625 1241.011719 2506.265625 1240.808594 Z M 2548.917969 1165.550781 C 2550.871094 1161.800781 2554.160156 1159.933594 2555.914062 1159.164062 C 2556.253906 1159.011719 2556.578125 1159.398438 2556.371094 1159.710938 C 2555.289062 1161.335938 2553.5625 1164.601562 2555.351562 1166.796875 C 2556.898438 1168.691406 2560.792969 1168.515625 2563.332031 1168.15625 C 2563.746094 1168.097656 2563.921875 1168.667969 2563.550781 1168.859375 C 2562.085938 1169.617188 2560.199219 1170.53125 2559.027344 1170.851562 C 2551.351562 1172.957031 2546.582031 1170.039062 2548.917969 1165.550781 Z M 2563.558594 1301.316406 C 2558.25 1304.226562 2555.933594 1302.714844 2550.425781 1296.375 C 2544.921875 1290.035156 2555.652344 1298.371094 2560.636719 1294.503906 C 2563.917969 1291.960938 2565.335938 1289.066406 2565.9375 1287.226562 C 2566.0625 1286.847656 2566.613281 1286.898438 2566.664062 1287.296875 C 2567.121094 1291.039062 2567.59375 1299.101562 2563.558594 1301.316406 Z M 2455.707031 1422.550781 C 2456.347656 1418.070312 2461.128906 1419.761719 2463.183594 1422.101562 C 2465.078125 1424.269531 2469.503906 1432.34375 2471.796875 1432.472656 C 2475.4375 1432.675781 2478.128906 1432.988281 2480.117188 1433.328125 C 2480.460938 1433.386719 2480.359375 1433.632812 2479.984375 1433.65625 C 2472.648438 1434.09375 2465.953125 1435.246094 2465.660156 1435.070312 C 2465.070312 1434.710938 2464.308594 1434.617188 2463.558594 1434.515625 C 2461.152344 1434.191406 2460.140625 1433.53125 2459.445312 1433.066406 C 2456.878906 1431.363281 2455.484375 1424.101562 2455.707031 1422.550781 Z M 2408.621094 1432.371094 C 2410.402344 1430.121094 2418.410156 1419.980469 2419.117188 1411.5625 C 2419.671875 1405.019531 2419.886719 1404.550781 2421.417969 1404.015625 C 2422.9375 1403.488281 2427.144531 1407.304688 2431.105469 1407.8125 C 2434.132812 1408.203125 2437.066406 1411.332031 2437.234375 1413.074219 C 2437.867188 1419.652344 2445.539062 1428.328125 2446.84375 1433.300781 C 2447.125 1434.386719 2448.417969 1435.898438 2449.472656 1436.820312 C 2449.703125 1437.023438 2449.960938 1437.453125 2449.5 1437.5625 C 2447.039062 1438.136719 2418.03125 1443.023438 2412.121094 1444.5 C 2411.84375 1444.570312 2411.464844 1444.390625 2411.375 1444.316406 C 2409.140625 1442.449219 2408.390625 1440.875 2407.5 1438.492188 C 2406.824219 1436.679688 2407.433594 1433.875 2408.621094 1432.371094 Z M 2389.96875 1433.050781 C 2390.417969 1431.964844 2391.644531 1429.4375 2392.644531 1429.828125 C 2397.691406 1431.808594 2397.765625 1438.746094 2398.421875 1440.449219 C 2399.417969 1443.042969 2400.582031 1444.875 2401.976562 1446.558594 C 2402.15625 1446.773438 2402.042969 1447.09375 2401.769531 1447.15625 C 2398.433594 1447.878906 2395.121094 1448.628906 2391.84375 1449.394531 C 2391.683594 1449.433594 2391.519531 1449.371094 2391.4375 1449.230469 C 2389.554688 1445.957031 2388.453125 1436.730469 2389.96875 1433.050781 Z M 2389.96875 1433.050781 " fill-opacity="1" fill-rule="nonzero"/></svg>